<svg width="179" height="35" viewBox="0 0 179 35" fill="none" xmlns="http://www.w3.org/2000/svg">
<g clip-path="url(#clip0_3540_13602)">
<path d="M6.81177 15.0757H22.2183V20.8021H6.81177V15.0757ZM7.36037 28.1647H24.7784V34.0729H0V2.25951H24.1841V8.1677H7.36037V28.1647Z" fill="#101316"/>
<path d="M30.1683 34.0729V0.350708H37.3001V34.0729H30.1683Z" fill="#101316"/>
<path d="M56.1253 34.4364C53.3214 34.4364 50.8527 33.8911 48.7192 32.8003C46.6163 31.7096 44.9857 30.225 43.8276 28.3465C42.6694 26.4377 42.0903 24.2713 42.0903 21.8474C42.0903 19.3933 42.6542 17.2269 43.7818 15.3484C44.94 13.4396 46.5096 11.955 48.4906 10.8946C50.4717 9.80382 52.7118 9.25845 55.211 9.25845C57.6187 9.25845 59.7826 9.77352 61.7027 10.8037C63.6533 11.8035 65.1924 13.2578 66.3201 15.1666C67.4478 17.0451 68.0116 19.3024 68.0116 21.9383C68.0116 22.211 67.9964 22.5292 67.9659 22.8927C67.9354 23.226 67.905 23.5442 67.8745 23.8471H31.6355V19.7114H64.1257L61.3827 20.9385C61.3827 19.666 61.1237 18.5601 60.6055 17.6208C60.0874 16.6816 59.3712 15.9544 58.4569 15.4393C57.5425 14.894 56.4758 14.6213 55.2567 14.6213C54.0376 14.6213 52.9556 14.894 52.0108 15.4393C51.0965 15.9544 50.3803 16.6967 49.8621 17.6663C49.344 18.6055 49.085 19.7266 49.085 21.0294V22.1201C49.085 23.4533 49.3745 24.6349 49.9536 25.665C50.5631 26.6649 51.4013 27.4375 52.468 27.9829C53.5652 28.498 54.8452 28.7555 56.3082 28.7555C57.6187 28.7555 58.7616 28.5585 59.7369 28.1647C60.7427 27.7708 61.657 27.18 62.4799 26.3922L66.2744 30.4825C65.1467 31.755 63.7295 32.7397 62.0228 33.4366C60.316 34.1032 58.3502 34.4364 56.1253 34.4364Z" fill="#101316"/>
<path d="M84.646 34.4364C81.9945 34.4364 79.6324 33.9062 77.56 32.8458C75.4875 31.755 73.8569 30.2553 72.6683 28.3465C71.5101 26.4377 70.9311 24.2713 70.9311 21.8474C70.9311 19.3933 71.5101 17.2269 72.6683 15.3484C73.8569 13.4396 75.4875 11.955 77.56 10.8946C79.6324 9.80382 81.9945 9.25845 84.646 9.25845C87.2366 9.25845 89.492 9.80382 91.4121 10.8946C93.3322 11.955 94.7494 13.4851 95.6637 15.4848L90.132 18.4389C89.492 17.2875 88.6843 16.4392 87.709 15.8938C86.7642 15.3484 85.728 15.0757 84.6003 15.0757C83.3812 15.0757 82.284 15.3484 81.3087 15.8938C80.3334 16.4392 79.5563 17.2118 78.9772 18.2116C78.4286 19.2115 78.1543 20.4234 78.1543 21.8474C78.1543 23.2715 78.4286 24.4834 78.9772 25.4833C79.5563 26.4831 80.3334 27.2557 81.3087 27.8011C82.284 28.3465 83.3812 28.6191 84.6003 28.6191C85.728 28.6191 86.7642 28.3616 87.709 27.8465C88.6843 27.3012 89.492 26.4377 90.132 25.256L95.6637 28.2556C94.7494 30.225 93.3322 31.755 91.4121 32.8458C89.492 33.9062 87.2366 34.4364 84.646 34.4364Z" fill="#101316"/>
<path d="M110.185 34.4364C107.289 34.4364 105.034 33.7093 103.419 32.255C101.803 30.7703 100.996 28.5737 100.996 25.665V0.350708H108.128V25.5742C108.128 26.6043 108.402 27.4072 108.95 27.9829C109.499 28.5282 110.246 28.8009 111.191 28.8009C112.318 28.8009 113.278 28.498 114.071 27.892L115.991 32.8912C115.259 33.4063 114.375 33.8002 113.339 34.0729C112.333 34.3153 111.282 34.4364 110.185 34.4364ZM97.2013 15.6211V10.1674H114.254V15.6211H97.2013Z" fill="#101316"/>
<path d="M119.994 34.0729V9.62203H126.806V16.5301L125.846 14.5304C126.577 12.8034 127.751 11.5005 129.366 10.6219C130.981 9.71292 132.947 9.25845 135.264 9.25845V15.8029C134.959 15.7726 134.684 15.7575 134.441 15.7575C134.197 15.7272 133.938 15.712 133.663 15.712C131.713 15.712 130.128 16.2725 128.909 17.3936C127.72 18.4843 127.126 20.1962 127.126 22.5292V34.0729H119.994Z" fill="#101316"/>
<path d="M151.029 34.4364C148.408 34.4364 146.076 33.8911 144.034 32.8003C142.023 31.7096 140.423 30.225 139.234 28.3465C138.076 26.4377 137.497 24.2713 137.497 21.8474C137.497 19.3933 138.076 17.2269 139.234 15.3484C140.423 13.4396 142.023 11.955 144.034 10.8946C146.076 9.80382 148.408 9.25845 151.029 9.25845C153.62 9.25845 155.936 9.80382 157.978 10.8946C160.02 11.955 161.62 13.4245 162.778 15.303C163.936 17.1815 164.515 19.363 164.515 21.8474C164.515 24.2713 163.936 26.4377 162.778 28.3465C161.62 30.225 160.02 31.7096 157.978 32.8003C155.936 33.8911 153.62 34.4364 151.029 34.4364ZM151.029 28.6191C152.218 28.6191 153.284 28.3465 154.229 27.8011C155.174 27.2557 155.921 26.4831 156.469 25.4833C157.018 24.4531 157.292 23.2412 157.292 21.8474C157.292 20.4234 157.018 19.2115 156.469 18.2116C155.921 17.2118 155.174 16.4392 154.229 15.8938C153.284 15.3484 152.218 15.0757 151.029 15.0757C149.84 15.0757 148.774 15.3484 147.829 15.8938C146.884 16.4392 146.122 17.2118 145.543 18.2116C144.994 19.2115 144.72 20.4234 144.72 21.8474C144.72 23.2412 144.994 24.4531 145.543 25.4833C146.122 26.4831 146.884 27.2557 147.829 27.8011C148.774 28.3465 149.84 28.6191 151.029 28.6191Z" fill="#101316"/>
<path d="M173.081 34.641C172.028 34.641 171.091 34.4195 170.27 33.9765C169.462 33.5335 168.819 32.9306 168.341 32.1676C167.876 31.3924 167.643 30.5126 167.643 29.5281C167.643 28.5314 167.876 27.6516 168.341 26.8887C168.819 26.1134 169.462 25.5105 170.27 25.0798C171.091 24.6368 172.028 24.4153 173.081 24.4153C174.122 24.4153 175.053 24.6368 175.874 25.0798C176.694 25.5105 177.337 26.1073 177.803 26.8702C178.268 27.6331 178.501 28.5191 178.501 29.5281C178.501 30.5126 178.268 31.3924 177.803 32.1676C177.337 32.9306 176.694 33.5335 175.874 33.9765C175.053 34.4195 174.122 34.641 173.081 34.641ZM173.081 32.2784C173.559 32.2784 173.987 32.1676 174.367 31.9461C174.747 31.7246 175.047 31.4109 175.267 31.0048C175.488 30.5864 175.598 30.0942 175.598 29.5281C175.598 28.9498 175.488 28.4576 175.267 28.0515C175.047 27.6454 174.747 27.3316 174.367 27.1101C173.987 26.8887 173.559 26.7779 173.081 26.7779C172.603 26.7779 172.175 26.8887 171.795 27.1101C171.415 27.3316 171.109 27.6454 170.876 28.0515C170.656 28.4576 170.546 28.9498 170.546 29.5281C170.546 30.0942 170.656 30.5864 170.876 31.0048C171.109 31.4109 171.415 31.7246 171.795 31.9461C172.175 32.1676 172.603 32.2784 173.081 32.2784Z" fill="#1C4E8E"/>
</g>
<defs>
<clipPath id="clip0_3540_13602">
<rect width="178.5" height="35" fill="white"/>
</clipPath>
</defs>
</svg>
